<svg width="22" height="24" viewBox="0 0 22 24" fill="none" xmlns="http://www.w3.org/2000/svg">
<path fill-rule="evenodd" clip-rule="evenodd" d="M2.4443 9.78468L10.2876 1.90898L11.2636 2.88907L3.42035 10.7648L2.4443 9.78468Z" fill="#149A80"/>
<path fill-rule="evenodd" clip-rule="evenodd" d="M5.047 12.3981L12.8903 4.52245L13.8663 5.50253L6.02305 13.3782L5.047 12.3981Z" fill="#149A80"/>
<path fill-rule="evenodd" clip-rule="evenodd" d="M10.578 17.952L18.4213 10.0763L19.3973 11.0564L11.554 18.9321L10.578 17.952Z" fill="#149A80"/>
<path fill-rule="evenodd" clip-rule="evenodd" d="M13.1807 20.5655L21.024 12.6898L22 13.6699L14.1567 21.5456L13.1807 20.5655Z" fill="#149A80"/>
<path fill-rule="evenodd" clip-rule="evenodd" d="M13.1807 20.5655C10.4734 23.284 6.09378 23.2939 3.39849 20.5875C0.703206 17.881 0.713032 13.4833 3.42035 10.7648L2.4443 9.78468C-0.804482 13.0469 -0.816258 18.3242 2.41809 21.5719C5.65243 24.8197 10.908 24.8078 14.1567 21.5456L13.1807 20.5655Z" fill="#149A80"/>
<path fill-rule="evenodd" clip-rule="evenodd" d="M18.4213 10.0763L19.3973 11.0564C21.9241 8.51912 21.9332 4.41452 19.4176 1.88851C16.902 -0.637491 12.8144 -0.628298 10.2876 1.90898L11.2636 2.88907C13.249 0.895491 16.4607 0.888258 18.4372 2.87298C20.4138 4.85769 20.4066 8.08274 18.4213 10.0763Z" fill="#149A80"/>
<path fill-rule="evenodd" clip-rule="evenodd" d="M5.047 12.3981C3.24212 14.2105 3.23587 17.1427 5.03273 18.947C6.82959 20.7513 9.74917 20.7444 11.554 18.9321L10.578 17.952C9.31458 19.2207 7.27094 19.2255 6.01313 17.9625C4.75533 16.6995 4.75963 14.6469 6.02305 13.3782L5.047 12.3981Z" fill="#149A80"/>
</svg>
